<?xml version="1.0" encoding="utf-8"?>
<!-- Generator: Adobe Illustrator 28.0.0, SVG Export Plug-In . SVG Version: 6.00 Build 0)  -->
<svg version="1.1" id="Layer_1" xmlns="http://www.w3.org/2000/svg" xmlns:xlink="http://www.w3.org/1999/xlink" x="0px" y="0px"
	 viewBox="0 0 1000 800" style="enable-background:new 0 0 1000 800;" xml:space="preserve">
<style type="text/css">
	.st0{display:none;}
	.st1{display:inline;fill:#CBBBA5;}
	.st2{display:inline;fill:#DFD4C2;}
	.st3{display:inline;fill:#B2A591;}
	.st4{display:inline;fill:#2D231D;}
	.st5{display:inline;fill:#5F4D41;}
	.st6{display:inline;fill:#130C09;}
	.st7{display:inline;fill:#928573;}
	.st8{display:inline;fill:#3F2F29;}
	.st9{display:inline;fill:#BAADA7;}
	.st10{display:inline;fill:#857666;}
	.st11{fill:#8C6239;}
	.st12{fill:#130C09;}
	.st13{fill:url(#SVGID_1_);}
	.st14{fill:#613017;}
	.st15{fill:#A46D38;}
	.st16{fill:#A67C52;}
	.st17{fill:url(#SVGID_00000023973405945039002520000007350052326511252907_);}
	.st18{fill:url(#SVGID_00000024717550291873669550000008924306430880424375_);}
	.st19{fill:#27150A;}
	.st20{fill:#DFD4C2;}
</style>
<g id="Background_00000097463426039186118240000008117513477414889373_" class="st0">
	<path class="st1" d="M-30.24,588.46c0.07-94.56-0.06-189.13,0-283.69c528.6,0,528.6,0,1057.21,0c0.06,93.1-0.08,186.21,0,279.31
		c-42.85,0.55-42.85,0.55-85.69,1.1c-14.89-8.54-30.69-15.29-44.91-25.19c-383.55,0-383.55,0-767.1,0
		c-21.11,10.02-42.41,19.46-63.49,29.57c-0.83,0.4-3.32,0.7-4.13,1.1C15.7,589.55,15.7,589.55-30.24,588.46z"/>
	<path class="st2" d="M1026.97,584.07c0.1,119.76-0.07,239.51,0,359.27c-528.6-0.55-528.6-0.55-1057.21-1.1
		c-3.41-17.32-0.04-307.7,0-353.79c45.94,1.1,45.94,1.1,91.89,2.19c-15.68,7.71-31.81,15.39-46.46,25.19
		c-3.2,2.14-11.88,5.66-13.42,8.76c-0.26,15.88-0.26,15.88-0.52,31.76c33.55,0.21,67.11-0.28,100.66,0
		c0.75,41.63,1.24,83.24,2.06,124.87c-3.66,0.83-1.07-4.34-2.58-5.48c-3.61-2.71-69.84,16.63-73.82,43.27
		c-10.48,70.06,217.84,54.32,257.59,61.89c170.08-2.02,393.51,9.18,558.54-4.38c15.33-1.26,91.28-9.96,102.21-12.05
		c25.27-4.83,98.72-27.73,49.56-60.24c-26.64-17.62-92.12-24.56-124.41-25.19c0.17-40.54,1.33-81.04,1.03-121.58
		c42.47-0.13,85.01-2.18,127.51-1.1c0.26-15.88,0.26-15.88,0.52-31.76c-1.71-3.98-8.75-6.41-10.32-7.67
		c-13.29-10.64-27.85-18.81-42.33-27.38c-2.03-1.2-4.16-3.21-6.19-4.38C984.12,584.62,984.12,584.62,1026.97,584.07z"/>
	<path class="st2" d="M1026.97,943.34c0,1.1,0,1.1,0,2.19c-528.6,0-528.6,0-1057.21,0c-0.12-1.06,0.2-2.26,0-3.29
		C498.37,942.8,498.37,942.8,1026.97,943.34z"/>
	<path class="st1" d="M103.98,781.23c0.39,19.52-0.29,39.08,0,58.6c2.68,4.32,7.04,2.35,11.36,2.74c-0.11,1.09,0.21,2.45,0,2.74
		c-2.13,2.92-15.4,6.54,9.81,12.6c239.05,17.32,479.17,15.39,718.57,7.67c33.84-8.87,100.31-8.38,126.99-24.1
		c46.38-27.32-31.59-51.53-76.4-54.77c-7.95-0.57-17.91-1.99-23.23,2.19c0.01-3.29-0.01-6.57,0-9.86
		c32.29,0.64,97.77,7.57,124.41,25.19c49.16,32.51-24.29,55.41-49.56,60.24c-10.93,2.09-86.88,10.79-102.21,12.05
		c-165.03,13.56-388.46,2.36-558.54,4.38c-39.76-7.57-268.07,8.17-257.59-61.89c3.98-26.63,70.21-45.97,73.82-43.27
		C102.91,776.89,100.32,782.07,103.98,781.23z"/>
	<path class="st2" d="M786.41,656.37c0,53.4,0,53.4,0,106.8c-0.33,0.98-2,0.4-2.06,0.55c-292.69-0.55-292.69-0.55-585.39-1.1
		c-1.21-34.96,0.9-70.17,0-105.15C394.76,657.67,590.61,656.59,786.41,656.37z"/>
	<path class="st2" d="M167.99,658.56c-0.59,21.94,3.49,96.7,2.06,106.25c-1.18,7.95-14.51,15.59-20.65,20.81
		c1.7-2.18-8.13-0.4-15.49,0c-1.05-42.64,0.1-85.49-1.03-128.15c11.38,0.04,23.08-1.12,34.59-1.1
		C168.31,656.37,167.88,658.56,167.99,658.56z"/>
	<path class="st2" d="M840.1,657.46c0.52,36.16-0.52,72.29-1.03,108.44c-0.05,3.58,0.52,25.44-0.52,26.29
		c-10.58-9.58-10.58-9.58-21.16-19.17c0-57.78,0-57.78,0-115.56C824.96,657.45,832.53,657.48,840.1,657.46z"/>
	<path class="st3" d="M115.33,842.57c3.84,0.35,10.52,0.28,14.45,0c2.2,4.37,47.66,6.32,50.07,5.48c0.64-0.22,7.86-8.66,9.29-2.19
		c11.36,0,11.36,0,22.71,0c2-7.47,26.71,0.96,29.94,1.1c7.05,0.29,14.1-0.27,21.16,0c-2.06,1.37-2.06,1.37-4.13,2.74
		c63.31,8.45,129.07,2.45,193.58,6.02c6.07-5.06,18.42,2.34,35.1,0c-2.41,2.44,14.57,0.7,11.87-4.38c0.31,0,1.07-1.14,6.19-1.1
		c10.75,1.29,5.81,4.16,6.71,4.38c1.56,0.38,26.66,0.94,32.01,1.1c0.76,0.02,0.27-2.21,1.03-2.19c0.4,0.01,1.66,2.18,2.06,2.19
		c59.08,1.25,118.46-2.33,177.58-1.1c-0.77-2.19-0.77-2.19-1.55-4.38c18.66-0.19,37.64-1.93,56.27-3.29
		c21.76,6.93,27.15-0.44,46.46,3.29c4-3.97,16.81-4.53,24.26-7.67c6.15,0.42,12.42-0.31,18.58,0c8.12,7.21,15.6,1.5,23.23,0
		c4.05-0.8,16.14-1.1,18.58-2.19c0.94-0.42,0.37-2.11,0.52-2.19c1.63-0.91,1.08-4.18,5.68-3.29c0.03,7.53,23.28-4.18,16-16.98
		c-0.97-1.71-20.4-16.11-22.2-16.98c-3.34-1.61-5.76-0.4-8.26-1.1c-1.01-0.28-0.03-3.11-1.03-3.29c-1.04-0.18-6.41,0.88-21.16,0
		c-3.25-0.19-6.01,0.78-9.29,0c0-3.83,0-3.83,0-7.67c5.32-4.18,15.28-2.77,23.23-2.19c44.81,3.24,122.78,27.45,76.4,54.77
		c-26.68,15.72-93.15,15.23-126.99,24.1c-239.4,7.72-479.52,9.65-718.57-7.67c-25.21-6.05-11.94-9.67-9.81-12.6
		C115.54,845.02,115.23,843.66,115.33,842.57z"/>
	<path class="st4" d="M842.16,816.29c0.09,0.76,1.79-0.77,3.1,14.24c-19.25,1.94-42.91-30.14-50.07-31.76
		c-14-3.17-55.46,15.22-38.2,21.91c5.19,2.01,29.51,2.6,37.17,4.38c5.43,1.26,10.73,4.83,16,6.57c-2.4-2.45-2.25,3.77-0.52,3.29
		c0.76-0.21,0.64-3.16,0.52-3.29c2.98,0.98,4.91,4.15,7.74,5.48c1.04,0.35,2.11-1.1,5.68,0c-1.97,4.61-16.61,1.59-21.68,0
		c-3.01-0.94-5.49-0.7-5.68-4.38c-0.55-0.08-0.17,3.15-10.32,2.19c-101.48-9.6-267.57-3.77-375.8-3.29
		c-70.99,0.32-141.84-3.05-212.68,1.1c-4.21,0.25-3.93-1.77-19.1,0c2.78-9.79-37.81,1.38-41.3-5.48c5.42-6.57,5.42-6.57,10.84-13.14
		c6.86-5.31,25.37-12.56,27.36-14.24c2.17,3.03,4.97,5.37,2.06,9.31c1.44,2.27,3.03,1.47,3.1,1.64c0.32,0.79-3.33,8.37,3.61,2.19
		c-2.77,13.55,4.57,2.76,10.32,1.1c14.33-4.15,29.46-5.77,43.36-12.05c1.64-1.21-1.95-2.83-6.19-2.19c0.77-1.1,0.77-1.1,1.55-2.19
		c260.95,0,260.95,0,521.89,0c1.78-0.54,7.82-3.26,8.26-3.29c8.86-0.51,18.07-2.05,21.16-2.19c5.48-0.26,27.89,3.19,31.49,1.1
		c0.44-0.26-1.7-6.29,0-7.67C817.39,784.35,837.8,815.62,842.16,816.29z"/>
	<path class="st5" d="M801.9,837.1c5.07,1.59,19.71,4.61,21.68,0c6.72,2.07,15.93,4.83,22.71,5.48c1.36,0.13,2.76-0.09,4.13,0
		c-7.45,3.14-20.26,3.7-24.26,7.67c-19.31-3.72-24.7,3.64-46.46-3.29c-18.63,1.35-37.61,3.1-56.27,3.29
		c-72.57,0.73-145.27,0.6-217.84,0c-5.13-0.04-5.88,1.1-6.19,1.1c-14.81-0.15-33.56-3.63-44.91,0c-3.19-7.05-23.39-2.26-30.97,0
		c-53.47-3.27-107.03-2.37-160.54-4.38c-7.07-0.27-14.11,0.29-21.16,0c-3.23-0.13-27.94-8.57-29.94-1.1c-11.36,0-11.36,0-22.71,0
		c-1.43-6.47-8.65,1.97-9.29,2.19c-2.41,0.84-47.87-1.11-50.07-5.48c12.13-0.88,23.43-5.72,35.1-7.67
		c8.34,1.88,29.21,2.44,38.72,2.19c0.78-0.02,0.25-2.17,1.03-2.19C503.27,836,503.27,836,801.9,837.1z"/>
	<path class="st6" d="M845.26,830.52c0.35,4.02,0.51,8.05,1.03,12.05c-6.78-0.65-15.99-3.4-22.71-5.48c-3.57-1.1-4.64,0.35-5.68,0
		c-2.83-1.32-4.76-4.49-7.74-5.48c-5.27-1.74-10.58-5.31-16-6.57c-7.66-1.78-31.97-2.37-37.17-4.38
		c-17.26-6.69,24.2-25.07,38.2-21.91C802.36,800.38,826.02,832.47,845.26,830.52z"/>
	<path class="st5" d="M880.36,796.57c6.84,4.36,37.72,17.95,25.81,33.41c-3.75,4.86-10.31,3.81-11.36,10.41
		c-4.09,0.41-6.05-1.36-8.78-1.1c-0.45,0.04-0.99,2.01-3.1,2.19c-0.78,0.07,0.23-2.36-2.06-2.19c-0.53,0.04,0.19,1.91-9.81,2.19
		c0-22.45,0-22.45,0-44.91C874.36,797.35,877.11,796.38,880.36,796.57z"/>
	<path class="st7" d="M911.34,838.19c-0.15,0.08,0.43,1.77-0.52,2.19c-2.45,1.09-14.53,1.39-18.58,2.19
		c-7.63,1.5-15.11,7.21-23.23,0c2.45,0.41,1.95-1.09,2.06-1.1c10-0.28,9.28-2.15,9.81-2.19c2.29-0.17,1.29,2.26,2.06,2.19
		c2.11-0.18,2.65-2.15,3.1-2.19c2.72-0.27,4.69,1.5,8.78,1.1C903.64,839.5,904.31,836.18,911.34,838.19z"/>
	<path class="st3" d="M785.38,774.66c0.55,3.95,0.32,13.49-1.03,17.53c-3.09,0.14-12.31,1.68-21.16,2.19
		c-0.44,0.03-6.48,2.74-8.26,3.29c-260.95,0-260.95,0-521.89,0c-3.63-3.22-13.19-3.05-18.58-3.29c-2.45-1.52-13.31-3.53-13.94-4.38
		c-1.18-1.6-0.15-4.65-0.52-6.57c-0.38-2.04,0.23-5.22,0-7.67c0.77-1.64,0.77-1.64,1.55-3.29
		C493.46,773.57,493.46,773.57,785.38,774.66z"/>
	<path class="st8" d="M801.9,837.1c-298.63-1.1-298.63-1.1-597.26-2.19c-0.78,0.02-0.25,2.17-1.03,2.19
		c-9.5,0.25-30.38-0.31-38.72-2.19c4.47-0.74,8.93-1.67,13.42-2.19c15.17-1.77,14.89,0.25,19.1,0c70.84-4.14,141.69-0.78,212.68-1.1
		c108.24-0.48,274.32-6.31,375.8,3.29c10.16,0.96,9.77-2.27,10.32-2.19C796.41,836.39,798.89,836.15,801.9,837.1z"/>
	<path class="st5" d="M233.03,797.66c-0.77,1.1-0.77,1.1-1.55,2.19c4.24-0.64,7.83,0.98,6.19,2.19
		c-13.9,6.28-29.03,7.89-43.36,12.05c-5.75,1.67-13.09,12.46-10.32-1.1c-6.95,6.18-3.29-1.4-3.61-2.19
		c13.13-9.09,37.38-11.57,27.88-15.33c6.4,0.28,5.88-1.11,6.19-1.1C219.84,794.61,229.4,794.45,233.03,797.66z"/>
	<path class="st9" d="M177.28,794.38c-0.32,1.75-0.77,4.38-2.06,5.48c-1.99,1.68-20.5,8.93-27.36,14.24
		c-5.42,6.57-5.42,6.57-10.84,13.14c-6.48-12.75,28.86-34.28,35.62-43.81C175.69,785.91,168.54,792.09,177.28,794.38z"/>
	<path class="st7" d="M208.25,795.47c9.5,3.76-14.74,6.24-27.88,15.33c-0.07-0.17-1.66,0.63-3.1-1.64c2.9-3.94,0.11-6.28-2.06-9.31
		c1.3-1.1,1.74-3.73,2.06-5.48C183.31,795.95,200.31,795.13,208.25,795.47z"/>
	<path class="st7" d="M499.4,851.34c2.69,5.08-14.28,6.82-11.87,4.38c-16.68,2.34-29.04-5.06-35.1,0
		c-64.51-3.58-130.27,2.43-193.58-6.02c2.06-1.37,2.06-1.37,4.13-2.74c53.51,2.01,107.07,1.11,160.54,4.38
		c7.58-2.26,27.79-7.05,30.97,0C465.84,847.71,484.58,851.18,499.4,851.34z"/>
	<path class="st10" d="M723.43,850.24c0.77,2.19,0.77,2.19,1.55,4.38c-59.11-1.24-118.49,2.35-177.58,1.1
		c-0.4-0.01-1.66-2.18-2.06-2.19c-0.76-0.02-0.27,2.21-1.03,2.19c-5.34-0.15-30.44-0.71-32.01-1.1c-0.9-0.22,4.04-3.09-6.71-4.38
		C578.16,850.84,650.86,850.97,723.43,850.24z"/>
	<path class="st7" d="M911.34,838.19c-7.03-2.01-7.7,1.31-16.52,2.19c1.05-6.6,7.61-5.54,11.36-10.41
		c11.91-15.46-18.97-29.04-25.81-33.41c14.75,0.88,20.12-0.18,21.16,0c1,0.17,0.02,3,1.03,3.29c2.5,0.69,4.92-0.52,8.26,1.1
		c1.8,0.87,21.22,15.27,22.2,16.98c7.28,12.8-15.98,24.51-16,16.98C912.42,834.01,912.96,837.28,911.34,838.19z"/>
	<path class="st8" d="M337.82,803.14c139.38,0,139.38,0,278.76,0c0.37,5.91,5.8,1.94,9.81,3.83c-36.62-0.41-73.36,1.8-109.95,1.64
		c-0.77,0-0.26-2.19-1.03-2.19c-59.51-0.26-119.09,0.74-178.61,0C337.31,804.78,337.31,804.78,337.82,803.14z"/>
	<path class="st6" d="M810.16,831.62c0.12,0.12,0.24,3.07-0.52,3.29C807.91,835.39,807.76,829.17,810.16,831.62z"/>
</g>
<g>
	<path class="st11" d="M609.32,388.61"/>
	<path class="st12" d="M816.7,356.07c0,57.78,0,57.78,0,115.56c10.58,9.58,10.58,9.58,21.16,19.17c1.04-0.85,0.47-22.7,0.52-26.29
		c0.7-0.01,1.88-0.27,2.06,0.55c1.51,6.74-0.46,36.71,1.03,49.84c-4.36-0.66-24.78-31.93-26.33-30.67c-1.7,1.38,0.44,7.41,0,7.67
		c-3.6,2.09-26-1.35-31.49-1.1c1.36-4.04,1.59-13.58,1.03-17.53c-0.71-5.08-4.5-0.35-6.19-2.74c-0.59-0.83,4.8-7.43,5.16-8.22
		c0.07-0.14,1.73,0.44,2.06-0.55c0-53.4,0-53.4,0-106.8C796.03,354.96,806.52,356.08,816.7,356.07z"/>
	<linearGradient id="SVGID_1_" gradientUnits="userSpaceOnUse" x1="810.9797" y1="396.5453" x2="899.6154" y2="493.6595">
		<stop  offset="0" style="stop-color:#130B08"/>
		<stop  offset="1" style="stop-color:#4C210F"/>
	</linearGradient>
	<path class="st13" d="M871.42,356.07c0.3,40.54-0.87,81.04-1.03,121.58c-0.01,3.29,0.01,6.57,0,9.86c0,3.83,0,3.83,0,7.67
		c0,22.45,0,22.45,0,44.91c-0.12,0,0.39,1.5-2.06,1.1c-6.16-0.31-12.44,0.42-18.58,0c-1.37-0.09-2.77,0.13-4.13,0
		c-0.52-4-0.68-8.03-1.03-12.05c-1.31-15.01-3.01-13.48-3.1-14.24c-1.49-13.13,0.48-43.1-1.03-49.84c-0.18-0.81-1.37-0.56-2.06-0.55
		c0.51-36.15,1.55-72.28,1.03-108.44C850.08,356.05,860.77,356.1,871.42,356.07z"/>
	<path id="wood" class="st11" d="M946.78,288.16c14.48,8.57,29.03,16.74,42.33,27.38c-321.92,3.35-643.91,0.82-965.84,1.1
		c-4.39-1.1-4.39-1.1-8.78-2.19c14.65-9.8,30.77-17.49,46.46-25.19c0.81-0.4,3.3-0.7,4.13-1.1
		C505.94,288.16,505.94,288.16,946.78,288.16z"/>
	<path class="st14" d="M999.44,323.21c-0.26,15.88-0.26,15.88-0.52,31.76c-42.49-1.09-85.03,0.97-127.51,1.1
		c-10.65,0.03-21.34-0.02-32.01,0c-7.57,0.01-15.14-0.01-22.71,0c-10.18,0.01-20.67-1.11-30.97-1.1
		c-195.8,0.23-391.66,1.3-587.45,1.1c-10.3-0.01-20.8,1.11-30.97,1.1c-0.11,0,0.32-2.19-0.52-2.19c-11.51-0.02-23.2,1.13-34.59,1.1
		c-0.21,0,1.14-1.08-4.13-1.1c-8.95-0.03-17.9,0.07-26.84,0c-33.55-0.28-67.11,0.21-100.66,0c0.26-15.88,0.26-15.88,0.52-31.76
		C500.26,323.21,500.26,323.21,999.44,323.21z"/>
	<path class="st15" d="M989.11,315.54c1.57,1.26,8.61,3.69,10.32,7.67c-499.18,0-499.18,0-998.36,0c1.54-3.1,10.22-6.62,13.42-8.76
		c4.39,1.1,4.39,1.1,8.78,2.19C345.2,316.36,667.19,318.89,989.11,315.54z"/>
	<path class="st16" d="M940.59,283.78c2.04,1.17,4.17,3.18,6.19,4.38c-440.85,0-440.85,0-881.7,0
		c21.08-10.11,42.38-19.55,63.49-29.57c383.55,0,383.55,0,767.1,0C909.89,268.49,925.7,275.24,940.59,283.78z"/>
	<path class="st11" d="M358.82,273.92c277.21,0,277.21,0,554.41,0c0.26,1.92,0.26,1.92,0.52,3.83
		c-184.98,1.52-369.95,0.16-554.93-0.55C358.82,275.56,358.82,275.56,358.82,273.92z"/>
	<g>
		
			<linearGradient id="SVGID_00000123408253723710106670000001525550552272349579_" gradientUnits="userSpaceOnUse" x1="124.0374" y1="364.5195" x2="106.8103" y2="526.6984">
			<stop  offset="0" style="stop-color:#32170B"/>
			<stop  offset="1" style="stop-color:#703D1E"/>
		</linearGradient>
		<path style="fill:url(#SVGID_00000123408253723710106670000001525550552272349579_);" d="M128.07,354.97
			c0.52,93.1,0.52,93.1,1.03,186.21c-3.93,0.28-10.61,0.35-14.45,0c-4.32-0.39-8.68,1.58-11.36-2.74c-0.29-19.52,0.39-39.08,0-58.6
			c-0.82-41.63-1.31-83.24-2.06-124.87C110.17,355.05,119.12,354.94,128.07,354.97z"/>
		
			<linearGradient id="SVGID_00000132060455934537510800000003959110403852691600_" gradientUnits="userSpaceOnUse" x1="184.5605" y1="364.7095" x2="182.4509" y2="456.6946">
			<stop  offset="0" style="stop-color:#120A08"/>
			<stop  offset="1" style="stop-color:#421C0D"/>
		</linearGradient>
		<path style="fill:url(#SVGID_00000132060455934537510800000003959110403852691600_);" d="M198.27,356.07
			c0.9,34.98-1.21,70.2,0,105.15c0.16,4.62,0.61,8.58,1.03,13.14c0.23,2.45-0.38,5.63,0,7.67c-14.97-9.31-14.97-9.31-29.94-18.62
			c1.42-9.55-2.66-84.31-2.06-106.25C177.47,357.18,187.97,356.06,198.27,356.07z"/>
		<path class="st12" d="M132.2,356.07c1.13,42.66-0.02,85.51,1.03,128.15c0.12,4.72-0.51,9.59,0.52,14.24
			c0.8,0.64,13.52-13.01,14.97-14.24c6.14-5.22,19.46-12.86,20.65-20.81c14.97,9.31,14.97,9.31,29.94,18.62
			c0.36,1.92-0.67,4.97,0.52,6.57c0.63,0.85,11.48,2.86,13.94,4.38c-0.31-0.01,0.21,1.37-6.19,1.1c-7.95-0.34-24.94,0.48-30.97-1.1
			c-8.74-2.28-1.59-8.46-4.65-10.95c-6.76,9.54-42.1,31.07-35.62,43.81c3.49,6.86,44.07-4.32,41.3,5.48
			c-4.49,0.52-8.95,1.45-13.42,2.19c-11.67,1.95-22.97,6.79-35.1,7.67c-0.52-93.1-0.52-93.1-1.03-186.21
			C133.33,354.99,131.98,356.07,132.2,356.07z"/>
	</g>
	<path class="st19" d="M783.66,462.32c-0.36,0.78-5.75,7.39-5.16,8.22c1.7,2.39,5.48-2.34,6.19,2.74
		c-291.92-1.1-291.92-1.1-583.84-2.19c-0.77,1.64-0.77,1.64-1.55,3.29c-0.42-4.56-0.87-8.52-1.03-13.14
		C490.97,461.77,490.97,461.77,783.66,462.32z"/>
	<path class="st20" d="M148.72,484.22c-1.45,1.23-14.17,14.88-14.97,14.24c-1.02-4.65-0.4-9.52-0.52-14.24
		C140.58,483.83,150.41,482.04,148.72,484.22z"/>
</g>
</svg>
